<svg version="1.1" viewBox="0 0 110 110" xmlns="http://www.w3.org/2000/svg">
    <path d="M89.617 46.921l14.532-3.838-14.532 3.838zM2.417 69.952l14.531-3.838-14.531 3.838zM63.019 92.339l3.893 14.324-3.894-14.324zM39.653 6.373l3.894 14.324-3.894-14.324zM27.175 41.664c-8.323 14.21-2.776 32.727 12.39 41.358l30.14-51.46c-15.165-8.63-34.207-4.108-42.53 10.102zM7.22 30.302a1.787 1.787 0 0 1 2.422-.64l12.283 6.992a1.734 1.734 0 0 1 .65 2.387 1.787 1.787 0 0 1-2.423.64L7.87 32.69a1.734 1.734 0 0 1-.65-2.387zM.886 69.075a1.77 1.77 0 0 1 1.077-.814l14.532-3.839a1.776 1.776 0 0 1 2.141 1.244c.25.92-.294 1.87-1.224 2.132L2.881 71.636a1.789 1.789 0 0 1-1.866-.624 1.728 1.728 0 0 1-.128-1.937zM26.041 99.54l7.093-12.11a1.788 1.788 0 0 1 2.423-.64 1.735 1.735 0 0 1 .65 2.389l-7.093 12.11a1.788 1.788 0 0 1-2.423.64 1.735 1.735 0 0 1-.65-2.388zM70.36 23.865l7.094-12.11a1.788 1.788 0 0 1 2.423-.64 1.735 1.735 0 0 1 .65 2.389l-7.094 12.11a1.788 1.788 0 0 1-2.423.64 1.735 1.735 0 0 1-.65-2.389z" fill="#FFC226"/>
    <path d="M38.12 5.513a1.781 1.781 0 0 1 1.766-.859c.71.093 1.295.599 1.481 1.28l3.894 14.325a1.746 1.746 0 0 1-1.262 2.111 1.777 1.777 0 0 1-2.163-1.206L37.943 6.84a1.726 1.726 0 0 1 .177-1.327z" fill="#FFC226"/>
    <path d="M33.938 106.043l5.385-9.193 1.955 7.193 8.303-2.193-4.18-15.378 11.41-19.48 11.409 19.48-4.18 15.378 8.303 2.193 1.955-7.193 5.385 9.193 7.444-4.237-5.384-9.193 7.297 1.927 2.225-8.184-15.6-4.121-11.41-19.48h22.819l11.42 11.258 6.079-5.992-5.342-5.266H110v-8.474H99.23l5.343-5.265-6.078-5.992-11.421 11.258H64.255l11.41-19.48 15.6-4.12-2.225-8.186-7.297 1.928 5.384-9.193-3.722-2.119-53.19 90.812 3.723 2.119z" fill="#6DA3E4"/>
</svg>
