<svg version="1.1" viewBox="0 0 110 110" xmlns="http://www.w3.org/2000/svg">
    <path d="M55 23.833c17.212 0 31.166 13.954 31.166 31.167 0 17.212-13.954 31.166-31.167 31.166-17.212 0-31.167-13.954-31.167-31.166 0-17.213 13.955-31.167 31.167-31.167zM110 55a1.833 1.833 0 0 1-1.833 1.834H93.5a1.833 1.833 0 0 1 0-3.667h14.667c1.012 0 1.833.82 1.833 1.833zM18.333 55c0 1.013-.82 1.834-1.833 1.834H1.833a1.833 1.833 0 0 1 0-3.667H16.5c1.012 0 1.833.82 1.833 1.833zM27.5 82.5l-11 11 11-11zM29.334 82.501c0 .486-.193.953-.537 1.296l-11 11a1.834 1.834 0 0 1-2.593-2.592l11-11a1.835 1.835 0 0 1 3.13 1.296zM93.5 16.5l-11 11 11-11zM95.334 16.501c0 .486-.193.953-.537 1.296l-11 11a1.834 1.834 0 0 1-2.593-2.592l11-11a1.835 1.835 0 0 1 3.13 1.296zM27.5 27.5l-11-11 11 11zM29.334 27.5a1.834 1.834 0 0 1-3.13 1.297l-11-11a1.834 1.834 0 0 1 2.593-2.593l11 11c.344.344.537.81.537 1.296zM56.833 1.833V16.5a1.833 1.833 0 0 1-3.666 0V1.834a1.833 1.833 0 0 1 3.666 0zM56.833 93.5v14.667a1.833 1.833 0 0 1-3.666 0V93.5a1.833 1.833 0 0 1 3.666 0zM93.5 93.5l-11-11 11 11zM95.334 93.502a1.834 1.834 0 0 1-3.13 1.296l-11-11a1.834 1.834 0 0 1 2.593-2.592l11 11c.344.343.537.81.537 1.296z" fill="#FFC226"/>
</svg>
