<svg version="1.1" viewBox="0 0 110 110" xmlns="http://www.w3.org/2000/svg">
    <path d="M50.409 0v11.136l-5.524-5.524-6.285 6.285 11.809 11.81v23.595L29.975 35.504l-4.323-16.132-8.586 2.3 2.022 7.547-9.644-5.568L5 31.349l9.643 5.568-7.545 2.022 2.3 8.586 16.132-4.323L45.965 55 25.53 66.798 9.398 62.475l-2.3 8.586 7.545 2.022L5 78.651l4.444 7.698 9.644-5.568-2.022 7.546 8.586 2.3 4.323-16.131 20.434-11.798v23.595l-11.81 11.81 6.286 6.285 5.524-5.524V110h4.444V0H50.41z" fill="#6DA3E4"/>
    <path d="M102.607 71.061l-2.301-8.586-16.132 4.323L63.74 55l20.434-11.798 16.132 4.323 2.301-8.587-7.546-2.022 9.644-5.567-4.445-7.698-9.644 5.568 2.022-7.546-8.585-2.3-4.323 16.131-20.435 11.798V23.706l11.81-11.81-6.285-6.284-5.524 5.524V0H54.85v110h4.444V98.864l5.525 5.524 6.285-6.285-11.81-11.81V62.698L79.73 74.496l4.323 16.132 8.585-2.301-2.022-7.546 9.644 5.568 4.445-7.698-9.644-5.568 7.546-2.022z" fill="#6DA3E4"/>
</svg>
