<svg version="1.1" fill="#E2001A" viewBox="0 0 110 110" xmlns="http://www.w3.org/2000/svg">
    <g clip-rule="evenodd" fill-rule="evenodd">
        <path d="M38.373 84.344c-.39-.873-.552-3.944 2.968-4.114 1.42-.071 2.958 1.247 3.307 2.724l3.794 3.11c-4.922 3.198-9.192.236-10.069-1.72zm12.974 2.241L45.545 82.1c-.44-2.415-1.727-3.992-4.973-3.6 1.708-5.705.121-8.943-7.404-7.749-1.057-4.836-4.112-5.443-8.945-2.272l-9.246-6.81c.366-10.737 2.765-20.338 6.56-29.248 2.618 1.145 5.37 1.62 8.284 1.301l-6.263 6.514c.445 4.96 3.942 6.389 10.773 3.105 5.61-2.696 14.122-7.548 18.12-4.925l26.625 17.88c4.846 3.62 8.63 8.98 6.019 12.958-1.688 2.575-5.276 1.94-9.227-.275l-9.809-7.126c-.708-.7-1.688-.727-.961.204l8.276 7.849c2.095 3 2.21 5.543.122 7.822-1.467 1.6-4.336 1.722-6.407 1.386l-8.674-7.588c-1.196-.723-1.454.449-.528 1.257l7.87 7.262c.393 1.562-.01 3.556-1.267 4.439-1.132.794-2.761.374-4.14-.278l-10.532-6.847c-.478-.34-.955-.072-.09.665l8.08 6.844c-.812 1.539-2.849 2.405-6.46 1.718zM33.82 72.612c2.128-1.644 8.145-.071 4.025 7.184-4.144 7.292-10.55-2.13-4.025-7.184zm-7.837-3.702c2.127-1.644 8.145-.071 4.026 7.183-4.144 7.292-10.553-2.129-4.026-7.183zm-9.104-3.696l6.017 4.925c-.387 3.489-9.277 4.43-6.017-4.925zm63.52-10.58l-26.904-18.08c-1.777-.897-3.652-1.4-5.728-1.04l-6.871 2.147c-9.079 7.385-15.675 6.582-15.195 2.18l10.017-8.962c1.124-1.023 2.358-1.671 3.621-2.181l10.687-3.787c2.653-.704 5.238-.673 7.803-.347l19.469 3.525c3.423.785 5.724.333 7.32-.899 6.793 6.983 11.323 15.902 14.47 25.994l-4.313 2.547-6.985 6.837c-1.668-3.363-4.26-5.893-7.39-7.934zm-68.356 6.602L0 59.331c.457-13.019 3.897-23.464 9.8-31.75l10.008 3.2c-4.134 8.384-6.813 18.428-7.765 30.455zm-2.5-3.221c.925-8.767 2.888-17.454 6.408-25.538l-5.018-1.604c-5.07 7.841-7.402 16.818-8.024 26.092z"/>
        <path d="M86.345 26.083L94.907 22c6.82 6.942 11.859 16.819 15.052 29.76l-8.282 1.25c-3.35-9.816-8.152-18.939-15.332-26.927zm4.478.957c5.553 6.87 9.658 14.562 12.71 22.867l2.942-.444c-2.43-8.68-6.199-17.328-12.207-24.067z"/>
    </g>
</svg>
