<svg version="1.1" fill="#E2001A" viewBox="0 0 110 110" xmlns="http://www.w3.org/2000/svg">
    <path d="M83.871 98.9c-.417-.418-.626-.94-1.043-1.46-.208-.314-.417-.836-.73-1.045-.417-.313-.939-.417-1.356-.417-.73 0-1.356.313-1.982.522-.73.208-1.356.94-2.087.73-.417-.104-.521-.939-1.043-1.043-.417 0-.834.313-1.043.626-.313.313-.104.94-.522 1.147-.208.21-.521 0-.834.104-.313.105-.417.522-.73.522-.418.104-1.043.104-1.356-.209-.21 0-.105-.417-.21-.73-.103-.208-.312-.417-.416-.626a9.544 9.544 0 0 0-.73-1.46c-.21-.418-.21-.94-.522-1.148-.417-.208-.835.522-1.252.522-.417.104-.835-.209-1.147 0-.418.21-.73.73-.94 1.147-.208.522 0 1.148-.417 1.565-.313.313-.938.313-1.356.105-.626-.313-.521-1.46-1.043-1.983-.313-.313-.626-.626-1.043-.626-.73 0-1.148 1.252-1.878 1.044-.73-.105-.626-1.774-1.356-1.878-.73-.104-1.043 1.252-1.878 1.356-.626.104-1.251-.834-1.877-.626-.418.104-.626.73-.94 1.043-.208.313-.208.94-.52 1.044-.522.104-1.148-.522-1.357-1.044-.209-.52.417-1.043.209-1.564-.105-.209-.522-.313-.73-.313-.21 0-.418.313-.626.417-.313.104-.626-.104-.835-.104-.834 0-1.773.521-2.504.104-.312-.209-.312-.626-.521-.939-.313-.626-.209-1.669-.939-1.982-.626-.313-1.356.73-1.982.626-.313 0-.522-.313-.835-.313-.417-.104-.938.104-1.356 0-.521-.104-.939-.835-1.46-.939-.626-.104-1.252.417-1.878.313-.521-.104-.834-.73-1.356-.939-.73-.313-1.67 0-2.4-.208-.73-.209-1.251-.835-1.877-1.044-.626-.208-1.356-.313-1.982-.208-.626.105-1.252.73-1.878.73-.417 0-.73-.522-1.147-.522-.626-.104-1.252.418-1.982.418-.835-.105-1.565-1.044-2.4-1.044-.834 0-1.564 1.044-2.399 1.044-.417 0-.834-.522-1.252-.522-.626 0-1.147.73-1.773.835-.835.208-1.773-.209-2.608-.105-.522.105-1.252.21-1.67.626-.52.626 0 1.878-.625 2.504-.313.313-1.043.104-1.46.417-.73.417-1.148 1.252-1.878 1.67-.522.208-1.043.416-1.565.208-.313-.105-.209-.73-.522-.939-.312.104-.521.21-.73.21-.417-.21-.521-.94-1.043-.94-.313 0-.521.417-.521.73-.105.417.104.73.104 1.147 0 .313.104.626-.104.835-.21.21-.522.21-.835.104-.417-.104-.626-.52-.835-.939-.208-.417-.104-1.043-.208-1.46-.105-.73-.313-1.46-.105-2.086a1.07 1.07 0 0 1 .522-.626c.209-.105.522 0 .73-.209.209-.313.105-.73.105-1.043 0-.313-.105-.522 0-.835 0-.313.313-.626.313-.938a1.448 1.448 0 0 0 0-.94c-.105-.417-.418-.73-.626-1.147-.209-.313-.313-.73-.626-1.043-.313-.417-.73-.626-1.148-.939-.417-.313-.939-.52-1.46-.834-.313-.209-.626-.209-.835-.522-.104-.209-.104-.522-.208-.73-.105-.209-.522-.313-.522-.626 0-.209.209-.313.313-.522.209-.313.522-.52.73-.73.313-.313.626-.626.835-1.043.313-.417.626-.835.834-1.252.313-.313.418-.834.73-1.147a5.07 5.07 0 0 1 1.878-1.148c.418-.104.939-.104 1.356-.209.105 0 .313 0 .418-.104.313-.104.521-.417.834-.73.313-.209.626-.313.835-.626.208-.313.104-.73.104-1.147-.104-.522-.522-1.148-.522-1.878 0-.417 0-.835.209-1.148.104-.208.417-.313.522-.52.104-.314.104-.73 0-1.149-.105-.313-.418-.52-.418-.834-.313-.418-.104-.94-.104-1.356 0-.313 0-.522-.104-.835-.209-.73-.73-1.356-.94-2.086a28.88 28.88 0 0 1-1.251-4.277c-.209-1.043 0-2.19-.521-3.13-.105-.313-.522-.52-.626-.834-.418-1.044-.21-2.19-.105-3.234.105-.417 0-1.043.418-1.252.313-.104.625.417 1.043.417.313.105.73 0 1.043.105.313.104.626.521.939.417.521 0 .939-.73 1.46-.835.522 0 .835.522 1.356.522.626 0 1.148-.835 1.774-.73.521 0 .73.521 1.147.834.417.21.73.73 1.252.626.313 0 .417-.417.626-.52l1.252-.94c.417-.313.834-.939 1.252-.835.208 0 .104.313.208.417.209.105.417.313.73.21.313-.105.418-.523.418-.836 0-.208-.313-.312-.418-.52-.104-.314-.313-.627-.208-.94.104-.313.521-.417.834-.626.522-.209 1.043-.417 1.565-.313.313 0 .522.522.835.522.313 0 .521-.209.73-.418.521-.52.73-1.356 1.356-1.773.626-.417 1.46-.626 2.19-.522.522.105 1.044.418 1.461.94.313.312.417.73.522 1.147.104.208 0 .626.208.73.209.104.522-.209.73-.313.21-.209.21-.417.313-.626.105-.208.21-.417.105-.73 0-.313-.105-.73-.417-.835-.21-.104-.418.105-.626.105-.313-.105-.522-.313-.835-.522-.209-.208-.313-.417-.313-.626 0-.313.417-.417.522-.73.104-.313.104-.626.104-.834.209-.626.417-1.252.73-1.774.209-.313.522-.52.73-.939.105-.208 0-.52 0-.834 0-.73-.104-1.46 0-2.19.105-.73.105-1.566.522-2.296.417-.73 1.148-1.252 1.982-1.565.522-.313 1.148-.208 1.67-.417.52-.313 1.25-.626 1.46-1.252.104-.313-.21-.73-.105-1.147.105-.418.418-.835.835-1.043.626-.313 1.356.208 2.086.104.209 0 .417-.313.626-.313.313-.104.626 0 .939-.104.313-.209.313-.73.626-1.044.209-.313.73-.52.73-.938 0-.209-.313-.313-.521-.418-.522-.104-1.148.418-1.774.21-.417-.105-1.043-.418-1.147-.836-.105-.626 1.043-1.043 1.043-1.773 0-.522-.626-.835-.626-1.252 0-.52.73-.834.939-1.356.208-.313.417-.626.521-.939 0-.417-.521-.73-.417-1.147.104-.418.626-.626 1.043-.626.313-.105.626.313.939.208.835-.208 1.043-1.356 1.773-1.877.522-.313 1.044-.73 1.67-.835.834-.104 1.46.626 2.295.626.208 0 .417-.104.73-.104s.626.208 1.043.208c.522 0 1.147 0 1.46-.417.418-.52 0-1.252.209-1.878.104-.417.313-.938.73-1.147.313-.209.94.21 1.148-.104.208-.209-.105-.626 0-.835.208-.313.834-.313 1.147-.522.418-.312.626-.938 1.148-1.147.626-.313 1.252-.626 1.982-.522.521.105.73.94 1.252 1.148.208.104.521-.104.73-.209.626-.104 1.147-.417 1.773-.313.522.105 1.043.313 1.46.73.522.418.314 1.565.94 1.67.521.104.834-.522 1.251-.835.418-.209.835-.626 1.356-.626.418 0 .835.313 1.148.417.521.21 1.147.522 1.669.73.626.21 1.46 0 1.878.522.417.522 0 1.356 0 1.982 0 .21-.105.522-.105.73 0 .313.105.835.313 1.044.209.104.418.208.626.104.418-.104.522-.73.835-.835.521-.208 1.147.105 1.669-.208.313-.209.313-.626.626-.835.417-.313.834-.73 1.356-.73.521 0 1.043.835 1.565.73.104 0 .104-.208.208-.208.313-.209.626-.626.94-.626.938 0 1.668.94 2.503 1.46.73.417 1.773.626 2.295 1.356.208.21 0 .626.104.835.209.208.626.104.835.313.313.208.208.94.521.94.209 0 .209-.314.417-.419.21-.104.418-.313.626-.208.418.104.73.417.94.834.208.313 0 .73 0 1.148v1.46c0 .313.208.73.208 1.043-.104.626-.939 1.148-.835 1.878.105 1.148 1.565 1.67 1.982 2.817.209.73.313 1.564.105 2.295-.105.313-.522.417-.626.73L87 31.51c-.209.208-.522.313-.626.626-.209.313 0 .73 0 1.147 0 .313-.209.73 0 1.043.209.522.834.73 1.252.94.626.312 1.46.312 1.982.834.521.417.834 1.147.834 1.773 0 .522-.521.94-.313 1.356.105.21.522.21.626.313.418.313.626.835.835 1.356.313.835-.209 1.982.417 2.713.209.208.626 0 .939.208.417.21.521.73.834.94.522.312 1.252.312 1.878.52.417.21.73.418 1.148.627.626.313 1.46.313 1.877.834.418.626.418 1.46.313 2.19-.104.522-.521.94-.521 1.461 0 .418.104.835.417 1.043.522.313 1.252-.208 1.878-.312.417-.105.939-.313 1.356-.313.73.104 1.252.938 1.982 1.147.313.104.73-.104 1.043 0 .522.313 1.043.835 1.043 1.356 0 .313-.417.417-.521.626-.105.417 0 .94.313 1.252.417.521 1.043 1.043 1.669 1.147.208 0 .417-.313.73-.313.73.105 1.252.94 1.46 1.565.209.835.313 2.087-.417 2.608-.313.21-.73-.209-1.043-.209-.522.105-1.043.21-1.461.626-.313.418-.208 1.044-.521 1.46-.209.314-.73.314-.939.522-.209.21-.104.73-.313.94-.313.417-.939.417-1.356.73-.522.417-.939 1.147-1.565 1.356-.313.104-.521-.105-.834-.105-.418-.104-.939-.417-1.357-.52-.417-.106-.938.103-1.251-.106-.522-.313-.418-1.25-.939-1.46-.417-.104-.835.417-1.356.522-.522.104-1.148-.522-1.565-.209-.417.313 0 1.147-.209 1.565-.104.208-.417.313-.521.626-.105.208-.209.521-.105.834.105.417.522.835.835 1.148.417.417.939.73 1.252 1.251.208.21.313.522.417.835.209.417.626.835.626 1.356 0 .417-.522.835-.522 1.252 0 .417.418.834.731 1.147.208.21.73.21.938.522.313.522 0 1.252-.104 1.878 0 .626-.209 1.252-.104 1.982.104.313.208.73.313 1.043.313.73.834 1.252 1.043 1.982.313.73.939 1.565.521 2.19-.625.94-2.295 0-3.338.21-.521.104-1.043.104-1.564.417-.522.312-.835 1.043-1.46 1.251-.314.105-.522-.208-.835-.208-.626 0-1.46-.105-1.878.417-.522.417-.313 1.252-.626 1.773-.218.424-.5.81-.835 1.148-.104.104-.312.104-.417.208a4.4 4.4 0 0 0-.939 1.461c-.417.73-.417 1.565-.939 2.19-.208.21-.521.314-.625.522-.105.104-.105.313-.105.417.105.418.522.626.73.94.21.417.105.938.21 1.46.103.73.52 1.46.625 2.19.104.522.417 1.148.104 1.565-.313.626-1.147 1.043-1.773 1.043-1.356-.52-1.982-1.043-2.504-1.46h.001zM73.127 81.06v-5.84h-9.493v-3.34H50.49v3.338h-9.493v5.842l32.13.001zM60.817 67.5V31.406h-.73l-14.917 5.32v5.841l8.554-2.607V67.5h7.093z"/>
</svg>
