<svg version="1.1" fill="#E2001A" viewBox="0 0 110 110" xmlns="http://www.w3.org/2000/svg">
    <g clip-rule="evenodd" fill-rule="evenodd">
        <path d="M28.023 69.71c-.698.3-1.416.556-2.14.756l-1.611 4.19-6.402.008-1.617-4.189a17.325 17.325 0 0 1-3.731-1.534l-4.1 1.781-4.52-4.53 1.835-4.098a17.744 17.744 0 0 1-1.546-3.733L.009 56.763 0 50.363l4.182-1.601c.365-1.298.88-2.547 1.546-3.742l-1.835-4.098 4.518-4.524 4.099 1.775a17.413 17.413 0 0 1 3.734-1.534l1.617-4.189 6.399.009 1.614 4.189c.733.203 1.457.462 2.164.765l1.593 3.571a27.98 27.98 0 0 0-1.448 3.521l-2 .771a9.701 9.701 0 0 0-5.121-1.454c-5.378 0-9.736 4.36-9.736 9.738 0 5.372 4.358 9.732 9.736 9.732 1.873 0 3.622-.53 5.106-1.445l2 .774a28.361 28.361 0 0 0 1.449 3.52zm-7.718-47.578c4.09-2.325 4.54-3.362 12.162-6.232 4.659-1.754 10.148-2.952 15.602-3.09 7.733-.198 22.82 3.458 28.639 8.642-1.473 1.787-2.771 2.976-4.093 4.501l17.08-.023c-.139-.504-6.455-16.209-7.619-17.504l-1.451 5.858c-1.143-.662-2.174-1.316-3.266-1.966-14.468-8.596-31.184-8.284-45.531.106-3.525 2.063-10.01 7.256-11.523 9.708zm6.803 79.414l1.725-5.92c2.165 1.084 4.02 2.58 6.494 3.822 8.13 4.088 17.551 5.342 26.751 3.776 5.525-.939 11.126-3.088 15.24-5.578 3.905-2.364 9.135-6.597 11.665-9.665-5.063 2.25-11.718 8.714-27.65 9.123-8.935.227-22.452-3.576-28.668-8.563 1.687-1.993 2.9-3.12 4.229-4.537l-17.116-.006zM81.974 69.71c.7.3 1.416.553 2.144.756l1.613 4.19 6.4.008 1.616-4.189c1.29-.356 2.545-.88 3.734-1.534l4.1 1.781 4.517-4.53-1.835-4.098a17.563 17.563 0 0 0 1.546-3.733l4.182-1.598.009-6.4-4.179-1.601a17.416 17.416 0 0 0-1.546-3.742l1.832-4.098-4.518-4.524-4.099 1.775a17.388 17.388 0 0 0-3.731-1.534l-1.617-4.189-6.402.009-1.61 4.189c-.725.2-1.44.453-2.136.754l-1.61 3.597a28.172 28.172 0 0 1 1.454 3.518l1.982.76a9.684 9.684 0 0 1 5.118-1.455c5.38 0 9.736 4.36 9.736 9.738 0 5.372-4.355 9.732-9.736 9.732a9.706 9.706 0 0 1-5.106-1.445l-2.014.771a28.576 28.576 0 0 1-1.45 3.503z"/>
        <path d="M42.512 76.012a25.197 25.197 0 0 0 5.451 2.243l2.356 6.118 9.347.014 2.362-6.117a25.254 25.254 0 0 0 5.45-2.243l5.988 2.602 6.6-6.617-2.678-5.985a25.963 25.963 0 0 0 2.26-5.45l6.104-2.336.015-9.347-6.105-2.337a25.585 25.585 0 0 0-2.259-5.464l2.677-5.988-6.6-6.608-5.986 2.596a25.267 25.267 0 0 0-5.451-2.243l-2.362-6.117-9.35.014-2.353 6.118a25.198 25.198 0 0 0-5.451 2.243l-5.987-2.626-6.6 6.609 2.672 5.987a25.255 25.255 0 0 0-2.25 5.464l-6.114 2.352-.015 9.332 6.114 2.36a25.53 25.53 0 0 0 2.25 5.461l-2.671 5.98 6.6 6.617zm12.492-36.67c7.854 0 14.218 6.367 14.218 14.22 0 7.846-6.364 14.213-14.218 14.213-7.856 0-14.226-6.367-14.226-14.212 0-7.854 6.37-14.221 14.226-14.221z"/>
    </g>
</svg>
