<svg version="1.1" fill="#E2001A" viewBox="0 0 110 110" xmlns="http://www.w3.org/2000/svg">
    <path d="M57.349 94.076L45.69 78.53a3.702 3.702 0 0 1-.79-2.334c0-1.05.375-1.963 1.125-2.727.75-.776 1.646-1.156 2.7-1.156 1.336 0 2.418.542 3.246 1.64l4.585 6.128V52.886c0-1.076.377-1.985 1.135-2.75a3.763 3.763 0 0 1 2.753-1.139c1.089 0 2.007.402 2.763 1.203.747.8 1.12 1.754 1.12 2.864V70.37h.973v-2.912c0-1.074.383-1.991 1.139-2.75.758-.756 1.672-1.138 2.744-1.138 1.097 0 2.012.401 2.762 1.201.75.795 1.127 1.749 1.127 2.866v2.733h.966v-1.946c0-.932.338-1.732 1-2.396.671-.666 1.472-1.001 2.4-1.001.973 0 1.786.341 2.428 1.018.65.676.972 1.502.972 2.468v1.857h.978c0-.81.28-1.496.848-2.064a2.804 2.804 0 0 1 2.063-.848c.811 0 1.5.3 2.061.909a3.05 3.05 0 0 1 .856 2.15v6.594c0 1.978-.246 3.942-.731 5.886L84.12 94.169a1.82 1.82 0 0 1-.683 1.043 1.89 1.89 0 0 1-1.197.41H60.446c-1.298 0-2.332-.516-3.097-1.546zM0 78.604V19.39C0 16.969 2.185 15 4.875 15h100.25c2.69 0 4.875 1.969 4.875 4.39v59.214c0 2.421-2.185 4.393-4.875 4.393H91.269a28.21 28.21 0 0 0 .608-5.069h10.824a1.232 1.232 0 0 0 .867-.36 1.234 1.234 0 0 0 .358-.868V21.294a1.23 1.23 0 0 0-1.225-1.228H18.184c-.673 0-1.225.556-1.225 1.228V76.7c0 .68.552 1.228 1.225 1.228h22.652a7.859 7.859 0 0 0 1.471 3.171l1.42 1.898H4.875C2.185 82.997 0 81.025 0 78.604zm23.415-7.216c-.631-.636-.472-1.828.37-2.667l2.683-2.692-2.69-2.69c-.835-.836-.994-2.032-.363-2.667.635-.634 1.835-.471 2.666.364l2.694 2.689 2.688-2.69c.84-.834 2.032-.997 2.667-.363h.003c.636.635.473 1.831-.36 2.667l-2.692 2.69 2.692 2.692c.833.833.996 2.031.357 2.667-.635.638-1.828.472-2.667-.364l-2.688-2.69-2.693 2.69c-.832.839-2.025 1.002-2.667.364zm15.698 0c-.634-.636-.465-1.828.368-2.667l2.686-2.692-2.69-2.69c-.836-.836-.998-2.032-.364-2.667.642-.634 1.831-.471 2.667.364l2.69 2.689 2.692-2.69c.839-.834 2.035-.997 2.67-.363.635.635.473 1.831-.363 2.667l-2.69 2.69 2.033 2.038c-.03 0-.058-.007-.086-.007a7.836 7.836 0 0 0-3.65.88l-.607-.606-2.689 2.69c-.836.839-2.025 1.002-2.667.364zm55.15-.364l-2.689-2.69-.009.01a7.305 7.305 0 0 0-1.67-2.87 6.967 6.967 0 0 0-3.167-1.982l-.15-.153c-.839-.836-1.001-2.032-.36-2.667.632-.634 1.825-.471 2.664.364l2.693 2.689 2.689-2.69c.836-.834 2.032-.997 2.666-.363.636.635.473 1.831-.364 2.667l-2.689 2.69 2.69 2.692c.836.833.999 2.031.363 2.667-.634.638-1.83.472-2.666-.364zm-68.346-17.97l-2.224-3.084c-.74-1.022-.881-2.482-.319-3.257.558-.773 1.61-.577 2.347.446l1.7 2.361 4.41-6.112c.733-1.027 1.79-1.221 2.35-.45.56.772.415 2.237-.325 3.257l-4.931 6.84c-.448.621-1.005.94-1.507.918-.497.023-1.055-.297-1.501-.918zm21.245.17l-2.693-2.692-2.689 2.693c-.836.838-2.025 1-2.667.365-.634-.637-.465-1.831.368-2.67l2.686-2.686-2.69-2.696c-.836-.836-.998-2.028-.364-2.666.642-.635 1.831-.473 2.667.367l2.69 2.692 2.692-2.696c.839-.836 2.035-.998 2.67-.363.635.634.473 1.83-.363 2.666l-2.693 2.696 2.693 2.687c.836.838.998 2.032.363 2.67-.635.634-1.831.472-2.67-.366zm47.102 0l-2.69-2.692-2.692 2.693c-.839.838-2.032 1-2.664.365-.634-.637-.473-1.831.36-2.67l2.693-2.686-2.693-2.696c-.839-.836-1.001-2.028-.36-2.666.632-.635 1.825-.473 2.664.367l2.686 2.692 2.696-2.696c.836-.836 2.032-.998 2.666-.363.636.634.473 1.83-.364 2.666l-2.694 2.696 2.694 2.687c.837.838 1 2.032.364 2.67-.634.634-1.83.472-2.666-.366zm-15.437 0l-2.69-2.692-2.688 2.693c-.84.831-2.033.994-2.667.359-.635-.63-.473-1.83.363-2.663l2.69-2.693-2.69-2.69c-.836-.836-1.002-2.032-.363-2.666.634-.635 1.827-.473 2.667.363l2.686 2.69 2.692-2.69c.836-.836 2.032-.998 2.666-.363.635.634.474 1.83-.36 2.666l-2.692 2.69 2.692 2.693c.834.833.995 2.032.36 2.663v.006c-.634.629-1.83.466-2.666-.365zm-65.294-4.223a4.831 4.831 0 0 0-4.827-4.828 4.825 4.825 0 0 0 0 9.65A4.828 4.828 0 0 0 13.533 49zM6.54 49a2.169 2.169 0 0 1 2.167-2.17 2.171 2.171 0 0 1 2.003 2.999A2.167 2.167 0 0 1 6.54 49zm66.476-13.747l-2.224-3.086c-.74-1.019-.883-2.481-.319-3.257.558-.778 1.612-.576 2.348.445l1.697 2.363L78.93 25.6c.734-1.022 1.789-1.222 2.352-.443.558.77.411 2.235-.326 3.257l-4.932 6.839c-.447.623-1.005.934-1.506.916-.497.018-1.056-.293-1.502-.916zm15.698 0l-2.224-3.086c-.74-1.019-.883-2.481-.318-3.257.557-.778 1.61-.576 2.344.445l1.7 2.363 4.412-6.118c.735-1.022 1.788-1.222 2.352-.443.558.77.414 2.235-.326 3.257l-4.932 6.839c-.447.623-1.004.934-1.505.916-.499.018-1.056-.293-1.503-.916zm-57.25.173l-2.688-2.69-2.693 2.69c-.832.836-2.025.998-2.667.357-.631-.629-.472-1.825.37-2.667l2.683-2.683-2.69-2.696c-.835-.835-.994-2.03-.363-2.666.635-.636 1.835-.473 2.667.365l2.693 2.69 2.688-2.692c.84-.836 2.033-1 2.667-.363h.003c.636.635.473 1.831-.36 2.666l-2.695 2.696 2.695 2.683c.833.842.996 2.038.357 2.667v.005c-.634.636-1.828.474-2.667-.362zm15.699 0l-2.693-2.69-2.689 2.69c-.836.836-2.025.998-2.667.357-.634-.629-.465-1.825.368-2.667l2.686-2.683-2.69-2.696c-.836-.835-.998-2.03-.364-2.666.642-.636 1.831-.473 2.667.365l2.69 2.69 2.692-2.692c.839-.836 2.035-1 2.67-.363.635.635.473 1.831-.363 2.666l-2.693 2.696 2.693 2.683c.836.842.998 2.038.363 2.667v.005c-.635.636-1.831.474-2.67-.362zm15.701 0l-2.689-2.69-2.692 2.69c-.84.836-2.033.998-2.67.357-.63-.629-.469-1.825.366-2.667l2.69-2.683-2.69-2.696c-.838-.835-1-2.03-.367-2.666.638-.636 1.832-.473 2.67.365l2.687 2.69 2.695-2.692c.836-.836 2.033-1 2.668-.363.635.635.471 1.831-.364 2.666l-2.696 2.696 2.696 2.683c.835.842.999 2.038.364 2.667v.005c-.635.636-1.832.474-2.668-.362z"/>
</svg>
