<?xml version="1.0" standalone="no"?>
<!DOCTYPE svg PUBLIC "-//W3C//DTD SVG 20010904//EN"
 "http://www.w3.org/TR/2001/REC-SVG-20010904/DTD/svg10.dtd">
<svg version="1.0" xmlns="http://www.w3.org/2000/svg"
 width="96.000000pt" height="96.000000pt" viewBox="0 0 96.000000 96.000000"
 preserveAspectRatio="xMidYMid meet">

<g transform="translate(0.000000,96.000000) scale(0.100000,-0.100000)"
fill="#0167cd" stroke="none">
<path d="M120 680 l0 -160 160 0 160 0 0 160 0 160 -160 0 -160 0 0 -160z
m200 0 l0 -40 -40 0 -40 0 0 40 0 40 40 0 40 0 0 -40z"/>
<path d="M520 680 l0 -160 160 0 160 0 0 160 0 160 -160 0 -160 0 0 -160z
m190 25 c26 -32 -13 -81 -47 -59 -35 22 -23 74 17 74 10 0 23 -7 30 -15z"/>
<path d="M120 280 l0 -160 160 0 160 0 0 160 0 160 -160 0 -160 0 0 -160z
m190 25 c15 -18 10 -45 -12 -59 -35 -22 -74 27 -48 59 16 19 44 19 60 0z"/>
<path d="M520 280 l0 -160 160 0 160 0 0 160 0 160 -160 0 -160 0 0 -160z
m200 0 l0 -40 -40 0 -40 0 0 40 0 40 40 0 40 0 0 -40z"/>
</g>
</svg>
