<?xml version="1.0" standalone="no"?>
<!DOCTYPE svg PUBLIC "-//W3C//DTD SVG 20010904//EN"
 "http://www.w3.org/TR/2001/REC-SVG-20010904/DTD/svg10.dtd">
<svg version="1.0" xmlns="http://www.w3.org/2000/svg"
 width="72.000000pt" height="72.000000pt" viewBox="0 0 72.000000 72.000000"
 preserveAspectRatio="xMidYMid meet">

<g transform="translate(0.000000,72.000000) scale(0.100000,-0.100000)"
fill="#000000" stroke="none">
<path d="M628 668 c-16 -14 -110 -189 -104 -196 2 -2 30 7 62 20 64 25 58 14
78 146 7 45 -5 54 -36 30z"/>
<path d="M435 564 c-47 -42 -85 -80 -85 -84 0 -10 54 -50 67 -50 6 0 107 167
121 202 10 24 -27 0 -103 -68z"/>
<path d="M0 486 c0 -20 27 -43 148 -128 81 -58 152 -107 158 -111 7 -4 102 25
213 65 187 66 201 73 201 96 0 19 -4 23 -17 17 -44 -17 -246 -85 -253 -85 -4
0 -60 38 -126 85 l-119 85 -102 0 c-102 0 -103 0 -103 -24z"/>
<path d="M488 231 c-54 -20 -98 -39 -98 -43 0 -8 167 -128 179 -128 7 0 16 55
35 194 2 17 -21 13 -116 -23z"/>
<path d="M143 176 l-143 -51 0 -32 0 -33 126 45 c70 25 128 45 130 45 6 0 44
63 44 73 0 10 1 10 -157 -47z"/>
</g>
</svg>
