<?xml version="1.0" encoding="utf-8"?>
<!-- Generator: Adobe Illustrator 22.0.1, SVG Export Plug-In . SVG Version: 6.00 Build 0)  -->
<svg version="1.1"  xmlns="http://www.w3.org/2000/svg" xmlns:xlink="http://www.w3.org/1999/xlink" x="0px" y="0px"
	 viewBox="0 0 225 225" style="enable-background:new 0 0 225 225;" xml:space="preserve">
<radialGradient id="SVGID_1_" cx="102.3876" cy="-121.1218" r="351.785" gradientTransform="matrix(0.6844 -0.7291 0.4054 0.3805 1.5424 390.7465)" gradientUnits="userSpaceOnUse">
	<stop  offset="0" style="stop-color:#FFD15B"/>
	<stop  offset="0.2148" style="stop-color:#FECE61"/>
	<stop  offset="0.3755" style="stop-color:#F36D47"/>
	<stop  offset="0.5398" style="stop-color:#C82E6E"/>
	<stop  offset="0.7468" style="stop-color:#D02D94"/>
	<stop  offset="0.7886" style="stop-color:#CB2F9A"/>
	<stop  offset="1" style="stop-color:#4E5ED1"/>
</radialGradient>
<path marker-start="none" marker-end="none" style="fill:url(#SVGID_1_);" d="M0,177.3V47.7C0,21.4,21.4,0,47.7,0h129.5
	C203.6,0,225,21.4,225,47.7v129.5c0,26.3-21.4,47.7-47.7,47.7H47.7C21.4,225,0,203.6,0,177.3z"/>
<path marker-start="none" marker-end="none" style="fill:#FFFFFF;" d="M166.9,68c0-5.5-4.5-10-10-10c-5.5,0-10,4.5-10,10
	s4.5,10,10,10C162.4,78,166.9,73.5,166.9,68z M84.7,112.5c0-15.3,12.4-27.8,27.8-27.8c15.3,0,27.8,12.4,27.8,27.8
	c0,15.3-12.4,27.8-27.8,27.8C97.1,140.2,84.7,127.8,84.7,112.5z M155.2,112.5c0-23.6-19.2-42.8-42.8-42.8s-42.8,19.1-42.8,42.8
	c0,23.6,19.2,42.8,42.8,42.8S155.2,136.1,155.2,112.5z M78.8,180.3c-8.1-0.4-12.5-1.7-15.5-2.9c-3.9-1.5-6.7-3.3-9.6-6.2
	c-2.9-2.9-4.7-5.7-6.2-9.6c-1.1-2.9-2.5-7.3-2.9-15.5c-0.4-8.8-0.5-11.4-0.5-33.6c0,0,0,0,0,0c0,0,0,0,0,0c0-22.2,0.1-24.9,0.5-33.6
	c0.4-8.1,1.7-12.5,2.9-15.5c1.5-3.9,3.3-6.7,6.2-9.6c2.9-2.9,5.7-4.7,9.6-6.2c2.9-1.2,7.3-2.5,15.5-2.9c8.8-0.4,11.4-0.5,33.6-0.5
	c22.2,0,24.8,0.1,33.6,0.5c8.1,0.4,12.5,1.8,15.5,2.9c3.9,1.5,6.7,3.3,9.6,6.2c2.9,2.9,4.7,5.7,6.2,9.6c1.2,2.9,2.5,7.3,2.9,15.5
	c0.4,8.8,0.5,11.4,0.5,33.6c0,0,0,0,0,0c0,0,0,0,0,0c0,22.2-0.1,24.9-0.5,33.6c-0.4,8.1-1.7,12.5-2.9,15.5c-1.5,3.9-3.3,6.7-6.2,9.6
	c-2.9,2.9-5.7,4.7-9.6,6.2c-2.9,1.1-7.3,2.5-15.5,2.9c-8.8,0.4-11.4,0.5-33.6,0.5C90.2,180.8,87.6,180.7,78.8,180.3z M146.8,195.3
	c8.9-0.4,14.9-1.8,20.2-3.9c5.5-2.1,10.1-5,14.7-9.6c4.6-4.6,7.5-9.3,9.6-14.7c2-5.3,3.5-11.3,3.9-20.2c0.4-8.9,0.5-11.7,0.5-34.3
	s-0.1-25.4-0.5-34.3c-0.4-8.9-1.8-14.9-3.9-20.2c-2.1-5.5-5-10.1-9.6-14.7s-9.3-7.5-14.7-9.6c-5.3-2-11.4-3.5-20.2-3.9
	c-8.9-0.4-11.7-0.5-34.3-0.5c-22.6,0-25.4,0.1-34.3,0.5S63.2,31.5,58,33.6c-5.5,2.1-10.1,5-14.7,9.6c-4.6,4.6-7.5,9.3-9.6,14.7
	c-2,5.3-3.5,11.4-3.9,20.2c-0.4,8.9-0.5,11.7-0.5,34.3s0.1,25.4,0.5,34.3c0.4,8.9,1.8,14.9,3.9,20.2c2.1,5.5,5,10.1,9.6,14.7
	c4.6,4.6,9.3,7.5,14.7,9.6c5.3,2,11.3,3.5,20.2,3.9s11.7,0.5,34.3,0.5C135.1,195.8,137.9,195.7,146.8,195.3z"/>
</svg>
