<svg version="1.1" viewBox="0 0 360 50" xmlns="http://www.w3.org/2000/svg">
	<path fill-rule="evenodd" clip-rule="evenodd" d="M6.44 0h342.542c6.218 0 9.19 7.782 4.605 12.06l-35.473 33.097a10.725 10.725 0 0 1-7.319 2.9H6.44C2.883 48.056 0 45.12 0 41.497V6.558C0 2.935 2.883 0 6.44 0z" fill="#E2001A"></path>
	<path fill-rule="evenodd" clip-rule="evenodd" d="M252.142 17.055l-6.178 14.476h5.772c.947 0 1.624-.541 1.894-1.353l1.353-3.112c.271-.676.271-1.082.271-1.353-.135-.27-.542-.406-1.083-.406h-4.013l1.713-3.923h9.606c2.3 0 3.653.406 4.059 1.488.541.948.271 2.57-.677 4.6l-2.029 4.961c-.811 1.894-2.435 2.976-4.464 2.976h-24.308l8.524-20.518h8.117c.496 0 .902.27 1.308.676.271.541.271.947.135 1.488zM222.289 35.41h-10.012l6.9-16.46h-9.876l1.623-4.058h28.817l-1.759 4.058h-8.659l-7.034 16.46zm-15.558-14.296l-2.707 6.224h-15.783L190 23.413h5.682l1.217-2.84c.271-.541.271-.948.271-1.219-.135-.27-.406-.405-1.083-.405h-4.193c-.542 0-.948.135-1.353.405-.271.271-.676.678-.947 1.083l-3.653 8.93c-.406.675-.542 1.217-.271 1.623.136.27.676.405 1.488.405h14.566l-2.435 4.014h-20.654c-2.299 0-3.652-.541-3.923-1.489-.406-1.081 0-2.525.947-4.69l3.382-8.117c.947-2.164 2.165-3.788 3.382-4.735 1.353-.946 3.112-1.487 5.412-1.487h15.648c2.3 0 3.653.54 4.059 1.487.406.947.135 2.57-.811 4.735zm-27.284-6.222l-2.164 4.058h-9.471c-.812 0-1.487.135-2.029.405-.406.407-.947.948-1.217 1.624l-3.519 8.388c-.27.677-.405 1.218-.134 1.624.134.27.676.405 1.488.405h10.687l-2.164 4.014h-16.64c-2.436 0-3.788-.676-4.195-1.759-.541-1.217-.27-2.796.542-4.555l3.246-7.846c.812-1.895 2.03-3.382 3.518-4.6 1.488-1.082 3.382-1.758 5.818-1.758h16.234zm-38.241 5.682c.27-.541.405-.948.27-1.219-.136-.27-.541-.405-1.082-.405H136.2a2.29 2.29 0 0 0-1.353.405c-.271.271-.541.678-.812 1.219l-3.923 9.199c-.271.541-.406.947-.271 1.218.136.27.407.405.948.405h4.329c.541 0 1.082-.135 1.352-.405.407-.271.677-.677.948-1.218l3.788-9.2zm10.237.54l-3.518 8.118c-.812 2.164-1.985 3.608-3.202 4.69-1.353.947-3.112 1.488-5.412 1.488h-16.099c-2.435 0-3.653-.541-4.058-1.489-.406-1.081 0-2.525.811-4.69l3.518-8.117c.947-2.164 2.029-3.788 3.246-4.735 1.353-.946 3.112-1.487 5.412-1.487h16.055c2.435 0 3.788.54 4.058 1.487.406.947.135 2.57-.811 4.735zM106.301 35.41H96.29l6.899-16.46h-9.966l1.714-4.058h28.681l-1.623 4.058h-8.794l-6.9 16.46zM80.1 20.166c.27-.54.27-.946.135-1.082-.135-.135-.405-.135-.812-.135h-6.087c-1.759 4.194-3.518 8.253-5.276 12.446h5.682c.54 0 .946 0 1.217-.135.135-.135.406-.541.676-.947.271-.811.542-1.488.947-2.3.136-.54.271-.811.136-.947-.136-.135-.406-.135-.947-.135h-4.33l1.624-3.923h4.465c.54 0 .946-.136 1.082-.27.27-.136.541-.406.811-.948.136-.541.407-1.082.677-1.624zm10.688-.946l-.947 2.299c-.406.677-.677 1.218-1.082 1.624-.406.406-.812.677-1.218.947-.541.27-1.082.406-1.623.541-.677 0-1.354.136-2.03.136v.135c1.488.135 2.706.54 3.247.811.541.406.541 1.082 0 2.165l-1.488 3.247a6.972 6.972 0 0 1-.947 1.714c-.406.54-.812.947-1.353 1.352-.54.407-1.217.677-2.03.812-.81.271-1.758.406-2.84.406H56.83c2.84-6.855 5.681-13.62 8.522-20.518h22.052c1.083 0 1.895.135 2.571.405.541.136.947.407 1.217.812.136.405.271.812.136 1.353 0 .542-.27 1.082-.541 1.759zM16.154 35.41l20.022-19.032c1.218-1.082 3.112-1.487 5.412-1.487h13.078c2.3 0 3.653.54 4.058 1.487.407.947.136 2.57-.811 4.735L51.96 35.41h-9.966c1.984-4.96 4.013-9.83 6.042-14.836.136-.541.271-.948.136-1.219 0-.27-.406-.405-.947-.405-1.083 0-1.894-.27-3.247 1.083l-7.532 7.17h7.397l-1.578 3.923h-9.877l-4.6 4.284H16.154zM306.889 15.025l1.353-8.929-2.841.947-5.232 10.418 6.72-2.436zM293.135 31.26l10.146 7.261 1.714-11.455-11.86 4.194zM295.434 19.76l6.63-11.498-2.3.811-8.524 7.711 4.194 2.977zM287.588 33.11l2.3-4.015-19.617 6.855-5.952 5.411 23.269-8.252z" fill="#fff"></path>
	<path fill-rule="evenodd" clip-rule="evenodd" d="M329.482 15.025h-7.577l-24.983 8.794-12.175-8.658h-14.341l19.617 13.934 39.459-14.07z" fill="#fff"></path>
</svg>
