<svg width="388" height="94" fill="none" xmlns="http://www.w3.org/2000/svg"><circle cx="47" cy="47" r="47" fill="#00A0E1"/><g clip-path="url(#a)"><path fill-rule="evenodd" clip-rule="evenodd" d="M66.71 76.906v-7.034H55.263v-4.02H39.447v4.02H28v7.034h38.71Zm-14.855-16.34V17.094h-.874l-17.957 6.422v7.034l10.311-3.145v33.16h8.52Z" fill="#fff"/></g><path fill-rule="evenodd" clip-rule="evenodd" d="m118 89.015.069-51.344c0-3.796 2.765-12.608 9.86-12.608 7.111 0 9.877 6.476 10.324 7.73.429 1.254 12.642 33.857 12.642 33.857s12.197-32.604 12.626-33.858c.447-1.254 3.212-7.73 10.324-7.73 7.111 0 9.86 8.813 9.877 12.609l.052 51.344h-14.12v-31.83s-10.153 23.636-12.437 28.532c-2.302 4.896-5.789 4.879-6.322 4.896-.549 0-4.088 0-6.321-4.896-2.233-4.895-12.454-28.532-12.454-28.532v31.83H118ZM215.432 48.441l-5.411 18.775h10.822l-5.411-18.775Zm0 31.28h-9.018l-2.68 9.294h-17.109l18.741-54.436s2.388-7.936 10.066-7.936c7.661 0 10.066 7.936 10.066 7.936l18.741 54.436H227.13l-2.68-9.293h-9.018ZM284.262 27.622s-9.001-2.731-19.771-2.731c-14.12 0-21.85 13.93-21.85 20.905 0 6.991 1.202 16.937 21.85 21.266 0 0 7.936 1.907 7.936 5.6 0 3.693-3.281 5.411-7.936 5.411-4.655 0-10.444.052-18.604-4.707v15.65s10.668 4.654 18.604 4.654 26.694-4.397 26.694-21.008c0-16.61-19.273-21.06-26.694-22.709 0 0-3.178-1.203-3.178-4.587 0-3.4 3.934-10.598 22.949-2.112V27.622ZM296.492 89.015l.069-51.344c0-3.796 2.766-12.608 9.877-12.608 7.095 0 9.86 6.476 10.307 7.73.446 1.254 12.643 33.857 12.643 33.857s12.196-32.604 12.642-33.858c.43-1.254 3.195-7.73 10.307-7.73s9.877 8.813 9.877 12.609l.052 51.344h-14.12l.017-31.83s-10.169 23.636-12.454 28.532c-2.302 4.896-5.789 4.879-6.321 4.896-.55 0-4.089 0-6.322-4.896-2.233-4.895-12.454-28.532-12.454-28.532v31.83h-14.12Z" fill="#00A0E1"/><path d="M387.998 26.643h-14.326v62.372h14.326V26.643ZM329.391 26.041c8.14 0 14.738-5.83 14.738-13.02C344.129 5.83 337.531 0 329.391 0s-14.739 5.83-14.739 13.02c0 7.192 6.599 13.021 14.739 13.021ZM150.895 26.041c8.14 0 14.738-5.83 14.738-13.02C165.633 5.83 159.035 0 150.895 0s-14.739 5.83-14.739 13.02c0 7.192 6.599 13.021 14.739 13.021Z" fill="#00A0E1"/><defs><clipPath id="a"><path fill="#fff" transform="translate(28 17)" d="M0 0h38.71v60H0z"/></clipPath></defs></svg>