<svg version="1.1" viewBox="0 0 100 100" xmlns="http://www.w3.org/2000/svg">
    <path d="M0 78.8V21.2C0 9.511 9.511 0 21.2 0h57.556C90.489 0 100 9.511 100 21.2v57.556c0 11.688-9.511 21.2-21.2 21.2H21.2C9.511 100 0 90.489 0 78.8z" fill="#F7931E"/>
    <path d="M33.244 83.156c-1.955-1.867-2-4.978-.133-6.934l10.311-10.8C36 64 31.556 60.49 31.29 60.313c-2.09-1.69-2.445-4.8-.756-6.89a4.833 4.833 0 0 1 6.845-.755c.044.044 4.755 3.555 12.266 3.6 7.556 0 12.134-3.556 12.178-3.6 2.09-1.689 5.156-1.333 6.845.755a4.922 4.922 0 0 1-.756 6.89c-.222.177-4.533 3.6-11.733 5.066l10.844 10.8a4.909 4.909 0 0 1 0 6.933 4.855 4.855 0 0 1-6.889 0L49.6 72.801l-9.556 10.221c-.977.978-2.222 1.512-3.51 1.512a4.726 4.726 0 0 1-3.29-1.378zM32 32.978c0-9.956 8.044-18.044 17.956-18.044 9.91 0 17.955 8.089 17.955 18.044 0 9.956-8.044 18.044-17.956 18.044-9.91 0-17.955-8.088-17.955-18.044zm25.378 0c0-4.133-3.334-7.467-7.422-7.467-4.09 0-7.423 3.334-7.423 7.467 0 4.133 3.334 7.467 7.422 7.467 4.09 0 7.423-3.334 7.423-7.467z" fill="#fff"/>
</svg>
