<svg version="1.1" viewBox="0 0 30 30" xmlns="http://www.w3.org/2000/svg">
    <path fill="#000000" d="M30 14.995c0-.185-.007-.369-.014-.552l-.608-.42.55-.494c-.093-.95-.276-1.89-.548-2.805l-.678-.251.4-.6c-.33-.91-.746-1.778-1.238-2.597l-.7-.072.23-.66a15.061 15.061 0 0 0-1.856-2.224l-.676.101.058-.676a15.028 15.028 0 0 0-2.36-1.708l-.619.26-.11-.66A14.926 14.926 0 0 0 19.109.565l-.528.403-.268-.606A14.998 14.998 0 0 0 15.405 0L15 .514 14.593 0c-.997.026-1.969.15-2.908.362l-.268.606-.528-.403c-.95.27-1.858.63-2.72 1.072l-.11.66-.618-.261a15.048 15.048 0 0 0-2.362 1.708l.058.676-.676-.1a15.07 15.07 0 0 0-1.857 2.224l.231.66-.7.072A14.88 14.88 0 0 0 .897 9.872l.4.6-.677.25a15.03 15.03 0 0 0-.548 2.806l.55.494-.608.42c-.007.184-.014.367-.014.552 0 .776.059 1.537.172 2.28l.676.353-.501.579c.202.928.488 1.824.853 2.68l.764.177-.35.702c.423.838.923 1.63 1.49 2.367l.795-.017-.169.779c.614.698 1.29 1.337 2.022 1.912l.78-.22.032.817a15 15 0 0 0 2.418 1.338l.714-.415.237.794c.866.31 1.76.54 2.668.687l.593-.582.427.709c.454.042.913.066 1.378.066.465 0 .923-.024 1.378-.066l.427-.71.592.583a14.895 14.895 0 0 0 2.667-.686l.238-.795.714.415c.85-.373 1.66-.82 2.418-1.338l.033-.816.779.219a15.1 15.1 0 0 0 2.022-1.913l-.167-.78.794.018a15.076 15.076 0 0 0 1.49-2.366l-.35-.702.764-.178c.365-.855.65-1.752.853-2.68l-.501-.579.676-.352c.115-.743.174-1.504.174-2.279zm-15 9c-5.08 0-9.198-4.12-9.198-9.2a9.198 9.198 0 0 1 18.395 0c0 5.08-4.117 9.2-9.197 9.2zm-8.395-9.176c0 4.59 3.734 8.325 8.322 8.325 4.59 0 8.323-3.734 8.323-8.325 0-4.591-3.733-8.325-8.323-8.325-4.588 0-8.322 3.734-8.322 8.325zm.66 0c0-4.227 3.438-7.665 7.662-7.665 4.225 0 7.663 3.438 7.663 7.665 0 4.226-3.438 7.664-7.663 7.664-4.224 0-7.662-3.437-7.662-7.664z"/>
</svg>
