<svg version="1.1" fill="#E2001A" viewBox="0 0 110 110" xmlns="http://www.w3.org/2000/svg">
    <path clip-rule="evenodd" d="M55.083 110L35.41 97.94l.705-3.636H10.742a5.965 5.965 0 0 1-1.859-.32c-.512-.254-1.089-.637-1.473-1.02-.449-.447-.833-.957-1.026-1.531A4.56 4.56 0 0 1 6 89.583V20.29c0-1.212.513-2.425 1.41-3.318.833-.893 2.05-1.404 3.332-1.404h17.685V4.722c0-1.277.512-2.425 1.345-3.318A4.811 4.811 0 0 1 33.17 0h43.89c1.218 0 2.435.51 3.332 1.404.833.893 1.346 2.041 1.346 3.318v10.846h17.685c1.281 0 2.499.51 3.332 1.404.897.893 1.41 2.106 1.41 3.318v69.292a4.77 4.77 0 0 1-1.41 3.382c-.833.83-2.051 1.34-3.332 1.34H74.049l.705 3.637zm0-5.934l14.16-8.741-9.931-53.469c-3.012-.893-5.831-1.02-8.458 0l-9.932 53.469zm41.842-58.254v-3.445H74.114v3.445zm-41.842-7.848c1.474 0 2.947.255 4.293.83l11.662-11.166-15.955-8.295-15.955 8.295L50.79 38.794c1.345-.575 2.819-.83 4.293-.83z" fill-rule="evenodd"/>
</svg>
