<svg version="1.1" fill="#747b8f" viewBox="0 0 110 110" xmlns="http://www.w3.org/2000/svg">
  <path clip-rule="evenodd" d="M55.242 77.99a1.626 1.626 0 0 0 2.434-.18l37.147-46.718a1.89 1.89 0 0 0-.248-2.582l-9.12-7.69a1.754 1.754 0 0 0-2.506.264l-26.834 33.75c-.615.776-1.717.861-2.434.17L39.814 41.829a1.755 1.755 0 0 0-2.516.104l-7.98 8.92c-.67.738-.625 1.91.1 2.592zm41.252-17.329c.12 11.417-4.73 34.072-41.233 49.339l-.01-.009-.008.009C18.748 94.733 13.899 72.078 14.018 60.661c0-2.563-.018-41.573-.018-42.339.377.01.973.01 1.35.01 18.174 0 33.694-7.605 39.902-18.332 3.976 6.867 11.764 12.448 21.617 15.58-.055.075-.12.141-.183.217l-4.904 6.176c-5.767-2.166-10.938-5.126-15.171-8.75l-1.36-1.163-1.35 1.164c-7.732 6.621-18.559 11.02-30.488 12.4l-1.883.218V40.77c.01 9.506.01 18.691.01 19.892v.085c-.102 9.403 4.031 27.148 32.848 40.448l.864.406.872-.406c28.808-13.3 32.94-31.045 32.84-40.448v-.085c0-.719 0-4.275.009-9.043l7.521-9.468z" fill-rule="evenodd"></path>
</svg>

