<svg version="1.1" fill="#747b8f" viewBox="0 0 110 110" xmlns="http://www.w3.org/2000/svg">
  <path d="M2.493 22h76.89c1.325 0 2.494 1.169 2.494 2.493v35.29c0 1.325-1.169 2.493-2.493 2.493h-51.26c-2.338-1.402-4.987-2.103-7.869-2.103-2.883 0-5.531.779-7.868 2.103H2.493C1.169 62.276 0 61.108 0 59.783v-35.29C0 23.169 1.169 22 2.493 22zm7.634 55.935c0-5.531 4.519-10.05 10.05-10.05 5.453 0 9.972 4.519 9.972 10.05.078 5.53-4.441 9.971-9.972 9.971s-10.05-4.44-10.05-9.971zm99.873.078v1.48c0 .39-.156.779-.468 1.09a1.537 1.537 0 0 1-1.09.468h-3.662c.234-1.013.468-2.104.468-3.116 0-6.388-3.973-12.231-12.231-12.231-6.7 0-12.153 5.531-12.153 12.23 0 1.091.156 2.104.467 3.117h-3.895V69.054c0-.234 0-.546-.156-.857-.078-.312-.233-.546-.467-.78a6.853 6.853 0 0 0-.78-.467 2.797 2.797 0 0 0-.856-.156H55a2.26 2.26 0 0 0-2.26 2.26v4.752H35.058c.389 1.246.545 2.648.545 4.05H52.74v3.195h-20.8c.311-1.013.467-2.026.467-3.116 0-6.856-5.453-12.231-12.153-12.231-6.778 0-12.231 5.531-12.231 12.23H4.752c0-8.569 6.856-15.58 15.503-15.58 3.038 0 5.765.857 8.102 2.337h56.168c2.571-1.48 5.454-2.337 8.414-2.337 5.609 0 10.517 3.038 13.321 7.557H110v6.7zm-27.11-.078c0-5.531 4.44-10.05 9.971-10.05 5.453 0 9.972 4.519 9.972 10.05 0 5.53-4.519 9.971-9.972 9.971a9.941 9.941 0 0 1-9.972-9.971zM54.61 81.44V70.3c0-1.09.857-1.947 1.87-1.947h16.983c1.09 0 1.87.934 1.87 1.947v11.14c0 1.091-.857 1.87-1.87 1.87H56.48c-1.09 0-1.87-.779-1.87-1.87zm-29.136-3.505c0-2.96-2.415-5.298-5.22-5.298-2.96 0-5.219 2.415-5.219 5.298a5.22 5.22 0 0 0 5.22 5.22c2.804 0 5.22-2.416 5.22-5.22zm72.607 0c0-2.96-2.415-5.298-5.22-5.298-2.96 0-5.22 2.415-5.22 5.298a5.22 5.22 0 0 0 5.22 5.22c2.96 0 5.22-2.416 5.22-5.22zm8.958-12.543l-6.388-5.22H84.369v-33.42c10.985 1.714 22.203 3.35 24.54 6.622l.078 1.792h-4.051l1.169 13.165h.155c2.104.78 3.428 2.104 3.428 4.597v12.464zm-3.895-17.45l-1.012-12.854h-14.88v8.959c0 1.48.39 1.87 1.636 2.025z" clip-rule="evenodd" fill-rule="evenodd"></path>
</svg>

