<svg version="1.1" viewBox="0 0 24 24" xmlns="http://www.w3.org/2000/svg">
    <path fill="#ff0020" d="M23.217 19.304H7.043a.783.783 0 0 1-.782-.782V2.348A2.35 2.35 0 0 0 3.913 0H.783a.783.783 0 1 0 0 1.565h3.13c.432 0 .783.351.783.783v16.174c0 1.08.735 1.993 1.73 2.265A2.35 2.35 0 0 0 8.609 24a2.35 2.35 0 0 0 2.214-3.13h7.052A2.35 2.35 0 0 0 20.087 24a2.35 2.35 0 0 0 2.213-3.13h.917a.783.783 0 1 0 0-1.566zM8.61 22.434a.784.784 0 0 1 0-1.565.784.784 0 0 1 0 1.566zm11.478 0a.784.784 0 0 1 0-1.565.784.784 0 0 1 0 1.566z"/>
    <path fill="#ff0020" d="M20.088 11.478H8.61a.783.783 0 0 0-.783.783v4.696c0 .432.35.782.783.782h11.478c.432 0 .783-.35.783-.782V12.26a.783.783 0 0 0-.783-.783zm0-7.826H8.61a.783.783 0 0 0-.783.783v4.696c0 .432.35.782.783.782h11.478c.432 0 .783-.35.783-.782V4.435a.783.783 0 0 0-.783-.783z"/>
</svg>
