<svg version="1.1" viewBox="0 0 30 30" xmlns="http://www.w3.org/2000/svg">
    <path fill="#000000" d="M0 15C0 6.732 6.7 0 15 0s15 6.7 15 15-6.732 15-15 15S0 23.3 0 15zm28.832 0c0-7.654-6.209-13.832-13.832-13.832C7.346 1.168 1.168 7.378 1.168 15c0 7.654 6.21 13.832 13.832 13.832 7.623.03 13.832-6.178 13.832-13.832zM9.898 26.496c-.185-.092-.216-.246-.123-.43l4.395-7.531c.369-.553.553-.676.83-.676.277 0 .43.123.83.676l4.395 7.53c.093.185.062.339-.123.43-1.567.677-3.288 1.077-5.071 1.077-1.845 0-3.566-.37-5.133-1.076zm9.036-1.291l-3.688-5.994c-.123-.215-.246-.246-.277-.246-.061 0-.153.03-.276.246l-3.689 5.994c1.23.492 2.551.738 3.965.738 1.414 0 2.736-.246 3.965-.738zm5.072-1.906l-5.81-6.485c-.399-.523-.46-.738-.368-.984.092-.246.246-.4.891-.584l8.515-1.844c.215-.031.338.061.368.245.185 1.691 0 3.443-.553 5.165a12.662 12.662 0 0 1-2.582 4.518c-.153.154-.307.154-.46-.03l-.001-.001zm-18.473.03a12.403 12.403 0 0 1-2.582-4.518c-.584-1.72-.738-3.473-.584-5.163.061-.216.184-.277.4-.246l8.514 1.844c.645.184.799.338.891.584.092.246.03.461-.369.984l-5.84 6.485c-.154.154-.307.154-.43.03zm19.98-5.01a11.19 11.19 0 0 0 .522-3.995l-6.824 1.629c-.246.061-.307.154-.307.215-.031.062-.031.184.153.338l4.55 5.349a11.511 11.511 0 0 0 1.905-3.535l.001-.001zm-19.09 3.537l4.55-5.349c.153-.184.153-.307.153-.338-.03-.061-.092-.154-.307-.215l-6.855-1.63a11.191 11.191 0 0 0 .523 3.997 10.705 10.705 0 0 0 1.936 3.535zm6.117-3.566a.74.74 0 0 1-.154-1.045.74.74 0 0 1 1.045-.154.74.74 0 0 1 .154 1.045c-.215.308-.707.37-1.045.154zm3.842-.184a.739.739 0 0 1 .154-1.046.74.74 0 0 1 1.045.154.74.74 0 0 1-.154 1.045c-.307.246-.799.185-1.045-.153zm-4.856-3.535a.76.76 0 0 1 .461-1.445.76.76 0 0 1 .492.953c-.154.4-.554.615-.953.492zm5.993-.492a.76.76 0 0 1 1.445-.461.76.76 0 0 1-1.445.46v.001zm-.768-1.568c-.215-.153-.307-.338-.277-1.014l.892-8.668c.03-.215.153-.308.369-.277 1.66.37 3.289 1.045 4.733 2.121a12.444 12.444 0 0 1 3.474 3.842c.092.185.03.338-.154.43l-7.992 3.505c-.615.215-.83.215-1.045.061zm-4.55-.061l-7.99-3.504c-.185-.093-.247-.246-.155-.43A12.988 12.988 0 0 1 7.53 4.642a12.578 12.578 0 0 1 4.733-2.12c.216-.031.308.061.37.276l.89 8.668c.031.676-.06.86-.276 1.014-.215.154-.43.185-1.045-.03h-.001zm2.03-.953a.76.76 0 0 1 .768-.769.76.76 0 0 1 .768.769.76.76 0 0 1-.768.768c-.43-.03-.768-.368-.768-.768zm3.534.092l6.486-2.674a10.395 10.395 0 0 0-2.766-2.92 10.9 10.9 0 0 0-3.627-1.721l-.554 6.977c-.03.246.062.338.093.369.03.03.153.061.368-.03v-.001zm-5.163 0c.03-.03.122-.123.092-.369l-.554-7.008c-1.26.338-2.52.922-3.627 1.721a10.82 10.82 0 0 0-2.766 2.92l6.486 2.705c.215.123.338.062.368.031h.001z"/>
</svg>
