<svg version="1.1" viewBox="0 0 100 100" xmlns="http://www.w3.org/2000/svg">
    <path d="M0 78.8V21.2C0 9.511 9.511 0 21.2 0h57.556C90.489 0 100 9.511 100 21.2v57.556c0 11.688-9.511 21.2-21.2 21.2H21.2C9.511 100 0 90.489 0 78.8z" fill="#5181B8"/>
    <path d="M81.911 34.444c.445-1.556 0-2.667-2.222-2.667H72.4c-1.866 0-2.71.978-3.155 2.045 0 0-3.69 9.022-8.978 14.889-1.689 1.689-2.489 2.222-3.378 2.222-.444 0-1.155-.533-1.155-2.089v-14.4c0-1.867-.534-2.667-2.09-2.667H42.179c-1.155 0-1.867.845-1.867 1.69 0 1.777 2.623 2.177 2.89 7.11v10.756c0 2.355-.445 2.8-1.334 2.8-2.489 0-8.489-9.067-12.044-19.467-.712-2-1.423-2.844-3.245-2.844H19.29c-2.089 0-2.489.978-2.489 2.044 0 1.911 2.49 11.511 11.511 24.178 6.045 8.667 14.534 13.333 22.223 13.333 4.622 0 5.2-1.022 5.2-2.844V62c0-2.09.444-2.49 1.91-2.49 1.067 0 2.934.534 7.245 4.712 4.934 4.933 5.778 7.155 8.534 7.155h7.288c2.09 0 3.112-1.022 2.534-3.11-.667-2.045-3.023-5.023-6.134-8.534-1.689-2-4.266-4.178-5.022-5.244-1.067-1.378-.755-2 0-3.245 0-.044 8.89-12.533 9.822-16.8z" fill="#fff"/>
</svg>
