<svg version="1.1" viewBox="0 0 100 100" xmlns="http://www.w3.org/2000/svg">
    <path d="M21.2 98.456h-.006C10.34 98.496 1.5 89.662 1.5 78.8V21.2c0-10.86 8.84-19.7 19.7-19.7h57.556C89.662 1.5 98.5 10.342 98.5 21.2v57.556c0 10.86-8.84 19.7-19.7 19.7H21.2z" fill="#fff" stroke="#CCC" stroke-width="3"/>
    <path d="M84.933 32.49c-.844-3.112-3.288-5.6-6.444-6.445-5.689-1.556-28.533-1.556-28.533-1.556s-22.8 0-28.534 1.511c-3.066.845-5.6 3.378-6.4 6.49-1.51 5.688-1.51 17.51-1.51 17.51s0 11.867 1.51 17.511c.845 3.112 3.29 5.6 6.4 6.445C27.2 75.51 49.956 75.51 49.956 75.51s22.8 0 28.533-1.51c3.111-.845 5.6-3.29 6.444-6.4 1.512-5.69 1.512-17.512 1.512-17.512s.044-11.91-1.511-17.6z" fill="#F00"/>
    <path d="M61.689 50L42.755 39.066v21.867L61.69 50z" fill="#fff"/>
</svg>
